PathFileType	4	(X/Y/Z)	C:\Users\WrightLab\Desktop\Jo\P3_24.trc
DataRate	CameraRate	NumFrames	NumMarkers	Units	OrigDataRate	OrigDataStartFrame	OrigNumFrames
100.00	100.00	       15	19	mm	100.00	77	       609
Frame#	Time	Headset_Front			Headset_Back			Headset_Left			Headset_Right			Left_Shoulder			Right_Shoulder			Sternum			C7			Left Elbow			Right Elbow			Left Wrist			Right Wrist			Left ASIS			Right ASIS			S2			Left Knee			Right Knee			Left Ankle			Right Ankle			
		X1	Y1	Z1	X2	Y2	Z2	X3	Y3	Z3	X4	Y4	Z4	X5	Y5	Z5	X6	Y6	Z6	X7	Y7	Z7	X8	Y8	Z8	X9	Y9	Z9	X10	Y10	Z10	X11	Y11	Z11	X12	Y12	Z12	X13	Y13	Z13	X14	Y14	Z14	X15	Y15	Z15	X16	Y16	Z16	X17	Y17	Z17	X18	Y18	Z18	X19	Y19	Z19	

77	0.760				-35.43673	1664.50854	1986.93958	-168.18941	1587.93201	1927.47864				-232.73761	1378.29688	1974.22900	114.82956	1382.45862	2046.00574				-66.54478	1435.90991	2061.09375	-339.31598	1091.15979	1859.74304	198.86984	1039.15649	2083.09741	-337.89713	981.84314	1682.02417	208.85587	878.00879	1921.74805	-145.33554	889.77332	1922.30225				-58.86578	982.54926	2148.25830	-141.83917	478.79254	2048.59375	122.52405	509.72281	1865.58606	-121.71964	164.46605	2159.66724	125.09696	172.62399	1904.60229	
78	0.770				-34.24290	1663.40295	1978.95984	-167.18861	1585.87683	1920.19873				-230.91211	1378.33398	1968.23511	116.36002	1380.54480	2037.61548				-64.94648	1434.66260	2053.55200	-339.27075	1091.57495	1851.18994	199.87947	1037.08325	2075.96021	-338.36765	983.82001	1671.74475	210.30522	876.62506	1916.05457	-144.69923	887.88660	1916.52649				-56.58834	981.57599	2141.45020	-140.77711	476.69913	2044.85327	121.88908	508.00845	1857.96338	-121.53650	164.34235	2158.61597	129.72394	169.99408	1879.15112	
79	0.780				-32.20077	1661.75488	1972.66418	-165.39261	1584.90002	1913.38025				-229.05392	1376.71252	1961.24622	117.88514	1379.35986	2031.38757				-63.04243	1432.68738	2046.16455	-338.43765	1091.48853	1843.15796	200.64343	1036.22900	2071.57446	-338.62964	986.05420	1662.73145	211.87656	874.97833	1908.97717	-143.62660	887.22363	1909.47192				-54.89637	980.05530	2133.44385	-140.04590	475.67703	2043.20483	122.02160	506.42334	1853.29187	-121.20860	164.28358	2157.52930	133.60213	167.76790	1854.68298	
80	0.790				-31.09671	1660.41858	1965.09387	-163.88753	1582.82471	1906.39587				-227.61162	1375.32141	1953.65393	119.65989	1377.25928	2022.93469				-61.34087	1431.46545	2039.30176	-338.31451	1091.67188	1835.13953	201.88150	1033.95752	2064.49316	-338.86536	988.54236	1654.48035	213.29437	872.91028	1903.44897	-142.31760	885.76129	1901.10974				-52.60293	978.36719	2125.93530	-138.89037	474.49268	2037.09363	122.43846	504.12924	1846.17224	-121.09174	164.03220	2156.34863	137.48280	167.25224	1831.69214	
81	0.800				-28.83433	1658.71606	1957.55554	-161.95825	1581.02966	1898.47168				-225.26080	1374.01147	1946.63928	121.06905	1375.63477	2016.42957				-59.65705	1429.77295	2031.85986	-338.00903	1091.39197	1828.15027	203.77519	1032.68018	2058.35352	-338.95386	989.36768	1646.53003	215.09773	872.05090	1896.79346	-141.73289	884.88123	1893.74817				-50.59145	976.65857	2118.07324	-137.71216	474.07022	2034.21472	122.81086	502.06238	1839.54102	-120.61154	164.15576	2155.06128	139.81186	167.01227	1809.56580	
82	0.810				-27.52788	1656.55054	1950.35632	-160.11430	1579.50549	1891.82532				-223.99846	1373.16101	1940.67285	123.38483	1373.08069	2006.69836				-57.23994	1428.19348	2024.51392	-337.07724	1091.10254	1819.83093	204.96059	1031.18896	2052.50879	-338.83020	990.84497	1638.42712	216.67184	869.97089	1891.39172	-140.84421	883.31744	1886.81543				-48.50247	974.43976	2110.28638	-136.73102	472.71472	2029.12524	124.17835	499.74469	1831.79456	-120.57992	164.38463	2153.76416	141.79567	167.10626	1787.41272	
83	0.820				-24.84593	1654.96021	1942.07886	-158.86403	1577.46484	1884.06421				-222.27328	1371.41382	1932.39819	125.79058	1371.21130	1999.15515				-55.78918	1426.38391	2016.93665	-336.14935	1090.32739	1812.79919	206.07556	1029.81396	2046.02637	-339.00363	992.72003	1629.00854	218.90891	867.48016	1885.39734	-139.81293	881.41559	1878.89160				-46.31076	972.99103	2102.48145	-136.16592	470.42224	2027.11316	125.87704	497.63904	1824.59021	-120.18006	164.45369	2152.45264	142.73976	167.74179	1768.49548	
84	0.830				-23.61618	1652.71240	1934.97534	-156.85448	1576.02148	1877.56226				-220.24542	1369.98206	1926.75732	127.14935	1369.55835	1991.16479				-53.35152	1424.68835	2010.00342	-335.60660	1089.42761	1805.90698	207.80817	1027.74512	2039.95142	-338.71918	994.34796	1619.65771	220.70483	865.47601	1879.12781	-138.49146	879.59332	1871.34387				-44.19967	970.92590	2093.60229	-135.76187	470.54999	2018.93628	127.29659	495.68274	1817.14050	-121.05097	163.74454	2155.36548	143.48358	168.96501	1749.07263	
85	0.840				-21.83849	1651.46155	1928.12622	-155.39317	1574.22595	1871.12939				-218.57013	1368.14746	1919.64001	129.27876	1367.58240	1983.41309				-51.31355	1422.40784	2001.75244	-334.94815	1088.76721	1798.65930	209.62569	1025.54065	2031.44849	-338.12726	995.25891	1611.65320	222.90544	863.48596	1873.91272	-137.41693	876.94769	1863.63293				-41.38972	969.14642	2085.61743	-134.86058	469.55698	2013.97424	128.33772	494.39993	1809.43176	-120.28087	164.29337	2154.08423	143.87680	169.15038	1733.35352	
86	0.850				-19.92333	1649.93652	1920.37073	-153.78136	1572.07324	1862.87048				-216.84686	1366.09851	1911.81799	131.10139	1365.83044	1975.20508				-49.15391	1420.37720	1994.22083	-334.23087	1087.70154	1790.73853	211.61751	1024.42627	2026.20374	-337.44504	995.70569	1603.08606	224.72635	861.23553	1866.00171	-136.31516	874.85388	1857.33240				-39.19155	966.19275	2076.19849	-133.06248	468.25546	2008.16455	129.37144	493.22842	1801.65137	-119.84252	164.78714	2153.00464	145.25969	169.89113	1718.74646	
87	0.860				-17.83714	1647.74976	1912.04150	-151.41971	1570.64563	1856.51062				-214.62691	1364.22473	1905.33740	132.95886	1363.24182	1966.78772				-46.89588	1418.31421	1986.99670	-333.10693	1086.68860	1784.47900	213.15994	1022.26514	2017.66638	-337.29855	996.43475	1593.92053	227.53123	858.36090	1861.12964	-134.91484	873.60876	1848.08130				-36.91614	965.28003	2069.88965	-132.48938	466.98450	2004.28271	131.05766	491.67056	1794.07825	-119.47725	165.55772	2150.46533	145.66066	169.68027	1706.59253	
88	0.870				-15.25136	1645.87659	1904.38757	-149.38586	1568.44556	1847.49475				-212.35951	1362.68018	1897.42737	135.42209	1361.12085	1958.88025				-44.35530	1415.91406	1977.55188	-331.92743	1085.23926	1776.14709	215.36922	1020.66876	2011.62903	-336.96487	997.30664	1586.69592	229.14496	856.82336	1851.81250	-133.64224	871.46069	1841.24646				-34.58676	962.31238	2059.88379	-131.09810	465.48740	1997.96143	132.31775	489.78140	1783.27942	-118.98164	166.02373	2149.43530	145.57590	168.85675	1693.82422	
89	0.880				-13.99474	1644.34912	1896.09924	-147.63461	1566.82068	1840.06677				-211.02852	1361.06970	1889.58899	137.68434	1358.87048	1949.07214				-42.21995	1414.60474	1971.19275	-330.92419	1084.55017	1769.75989	217.02946	1017.86249	2003.22510	-336.98541	997.23529	1578.30823	231.50029	854.90021	1844.19983	-132.24226	870.44202	1830.58997				-31.97588	961.06683	2052.00098	-128.86871	463.68802	1991.12207	133.01805	489.08926	1772.76941	-118.76897	166.72351	2147.45581	145.69501	167.46516	1685.80322	
90	0.890				-11.59459	1643.18359	1889.38745	-145.65349	1565.95972	1833.57922				-208.64517	1359.52661	1883.06921	140.14043	1357.55591	1941.71973				-40.25686	1412.83362	1962.23914	-330.31699	1082.89209	1761.58667	219.75543	1017.00372	1996.09363	-336.23804	997.39832	1570.05688	233.95915	852.28772	1837.81128	-129.97293	867.52649	1824.97839				-29.38544	958.63062	2041.61829	-128.70448	463.60202	1984.94653	133.59778	487.73291	1762.60742	-118.76679	167.65463	2146.13354	146.85031	164.07147	1680.93762	
91	0.900				-9.67304	1641.74036	1879.47900	-144.11887	1563.76379	1824.78613				-207.00238	1357.46411	1874.90564	141.76086	1355.64209	1932.91589				-37.60685	1411.13647	1954.44995	-329.07605	1081.80896	1754.38379	221.98889	1014.99664	1986.71582	-335.95148	997.67395	1562.40405	236.18454	850.51025	1829.90332	-128.49144	865.43518	1815.55322				-27.31396	957.35986	2034.02209	-127.45280	461.87869	1979.28333	134.24709	486.63785	1751.74878	-118.98452	169.49765	2143.21362	146.61157	161.47208	1674.85364	
